# xmcd
# 
# Track frame offsets:
#     150
#     15049
#     27876
#     38626
#     48355
#     60380
#     71901
#     82437
#     95253
#     106017
#     117018
#     128268
#     142245
#     154383
#     168629
#     178798
#     193118
#     201840
#     213198
#     227274
# 
# Disc length: 3220
# 
# Revision: 2
# Processed by: cddbd v1.5.2PL0 Copyright (c) Steve Scherf et al.
# Submitted via: BonkEnc v1.0
# 
DISCID=080c9214
DTITLE=Henri Salvador - Le charme des iles
DYEAR=0
DGENRE=
TTITLE0=Parce que ca me donne du courage
TTITLE1=La samba de la-bas
TTITLE2=Le portrait de Tante Caroline
TTITLE3=C'est le Be-Bop
TTITLE4=Amstrong, Duke Ellington, Cab Calloway
TTITLE5=24 heures par jour
TTITLE6=Adieu foulards, adieu madras
TTITLE7=Ma doudou
TTITLE8=Bon appetit Mademoiselle
TTITLE9=Le loup, la biche et le chevalier
TTITLE10=Charlot
TTITLE11=Comme j'aimais
TTITLE12=Re-bonjour
TTITLE13=Si jolie
TTITLE14=Ela diz que tem
TTITLE15=Qui sait..., qui sait..., qui sait...
TTITLE16=Maladie d'amour
TTITLE17=Un p'tit air dans la caboche
TTITLE18=Saint-Germain des Pres
TTITLE19=Henri Salvador s'amuse
EXTD=
EXTT0=
EXTT1=
EXTT2=
EXTT3=
EXTT4=
EXTT5=
EXTT6=
EXTT7=
EXTT8=
EXTT9=
EXTT10=
EXTT11=
EXTT12=
EXTT13=
EXTT14=
EXTT15=
EXTT16=
EXTT17=
EXTT18=
EXTT19=
PLAYORDER=
